<svg version="1.1" id="Layer_1" xmlns="http://www.w3.org/2000/svg" xmlns:xlink="http://www.w3.org/1999/xlink" x="0px" y="0px"
	 width="100%" viewBox="0 0 500 500" enable-background="new 0 0 500 500" xml:space="preserve">
<path fill="none" opacity="1.000000" stroke="none" 
	d="
M217.000000,501.000000 
	C144.666687,501.000000 72.833366,501.000000 1.000039,501.000000 
	C1.000026,334.333405 1.000026,167.666779 1.000013,1.000128 
	C167.666565,1.000085 334.333130,1.000085 500.999756,1.000043 
	C500.999847,167.666534 500.999847,334.333069 500.999939,500.999817 
	C406.500000,501.000000 312.000000,501.000000 217.000000,501.000000 
M231.060379,396.428986 
	C227.691315,391.855316 223.981445,387.491272 221.015701,382.669525 
	C211.285080,366.849304 208.345886,349.658813 210.922363,331.299988 
	C213.109558,315.715149 218.586411,301.291504 226.642944,288.025421 
	C239.090820,267.528534 252.631638,247.696106 265.113983,227.219208 
	C279.635895,203.396454 288.984528,177.880203 283.722839,149.468216 
	C281.650696,138.279007 277.804657,127.150070 273.028625,116.795204 
	C266.509766,102.661781 258.358551,89.278748 250.843796,75.608833 
	C248.834930,71.954544 246.595337,68.427063 244.461685,64.841362 
	C243.975647,65.036186 243.489609,65.231010 243.003571,65.425827 
	C243.003571,72.190514 243.884903,79.099724 242.804581,85.687241 
	C241.021286,96.561348 239.425522,107.847664 235.159378,117.855621 
	C225.583725,140.319138 210.552856,159.725739 197.265503,180.086029 
	C185.746475,197.736694 173.569290,215.017502 163.085938,233.267685 
	C152.507599,251.683228 145.072067,271.424194 141.669006,292.787964 
	C138.928482,309.992493 139.883133,326.801178 144.370743,343.120789 
	C148.763794,359.096497 156.498535,373.714508 167.697449,386.555817 
	C178.415924,398.846222 190.620453,408.819885 205.581116,414.868317 
	C214.841614,418.612274 224.813324,420.643036 234.528442,423.205200 
	C247.352722,426.587311 260.119629,425.263763 272.987335,421.991180 
	C265.781860,418.515533 257.946167,416.355316 251.208618,412.348541 
	C244.112625,408.128601 238.065964,402.144257 231.060379,396.428986 
M228.352829,349.863922 
	C228.899475,351.881317 229.624542,353.869293 229.963272,355.921021 
	C231.884140,367.555969 237.108994,377.563324 244.801849,386.362213 
	C256.864410,400.159027 272.713623,407.467834 290.010681,411.777405 
	C294.437256,412.880310 300.430847,413.160919 304.052979,411.022217 
	C315.958405,403.992767 327.175812,395.907318 335.957611,384.753082 
	C352.675629,363.518585 360.893311,339.342865 361.860077,312.613983 
	C362.082733,306.457458 361.188477,300.137024 359.923065,294.076843 
	C357.559326,282.756256 355.460724,271.240601 351.548340,260.422150 
	C347.607788,249.525635 342.283051,238.968979 336.339783,228.993256 
	C326.192688,211.961594 315.128448,195.474167 304.315948,178.844940 
	C303.379852,177.405273 301.451385,176.610855 298.955994,174.750320 
	C298.955994,178.431854 299.294769,180.764832 298.902191,182.967468 
	C295.879883,199.924240 290.104645,216.020706 281.409088,230.788376 
	C270.184174,249.851608 257.861847,268.265350 246.382034,287.183289 
	C241.743622,294.827057 237.259888,302.759552 234.172699,311.103424 
	C229.694382,323.207123 227.046921,335.881165 228.352829,349.863922 
z"/>
<path fill="#2C7E89" opacity="1.000000" stroke="none" 
	d="
M231.310593,396.679901 
	C238.065964,402.144257 244.112625,408.128601 251.208618,412.348541 
	C257.946167,416.355316 265.781860,418.515533 272.987335,421.991180 
	C260.119629,425.263763 247.352722,426.587311 234.528442,423.205200 
	C224.813324,420.643036 214.841614,418.612274 205.581116,414.868317 
	C190.620453,408.819885 178.415924,398.846222 167.697449,386.555817 
	C156.498535,373.714508 148.763794,359.096497 144.370743,343.120789 
	C139.883133,326.801178 138.928482,309.992493 141.669006,292.787964 
	C145.072067,271.424194 152.507599,251.683228 163.085938,233.267685 
	C173.569290,215.017502 185.746475,197.736694 197.265503,180.086029 
	C210.552856,159.725739 225.583725,140.319138 235.159378,117.855621 
	C239.425522,107.847664 241.021286,96.561348 242.804581,85.687241 
	C243.884903,79.099724 243.003571,72.190514 243.003571,65.425827 
	C243.489609,65.231010 243.975647,65.036186 244.461685,64.841362 
	C246.595337,68.427063 248.834930,71.954544 250.843796,75.608833 
	C258.358551,89.278748 266.509766,102.661781 273.028625,116.795204 
	C277.804657,127.150070 281.650696,138.279007 283.722839,149.468216 
	C288.984528,177.880203 279.635895,203.396454 265.113983,227.219208 
	C252.631638,247.696106 239.090820,267.528534 226.642944,288.025421 
	C218.586411,301.291504 213.109558,315.715149 210.922363,331.299988 
	C208.345886,349.658813 211.285080,366.849304 221.015701,382.669525 
	C223.981445,387.491272 227.691315,391.855316 231.310593,396.679901 
z"/>
<path fill="#2A3154" opacity="1.000000" stroke="none" 
	d="
M228.200134,349.433746 
	C227.046921,335.881165 229.694382,323.207123 234.172699,311.103424 
	C237.259888,302.759552 241.743622,294.827057 246.382034,287.183289 
	C257.861847,268.265350 270.184174,249.851608 281.409088,230.788376 
	C290.104645,216.020706 295.879883,199.924240 298.902191,182.967468 
	C299.294769,180.764832 298.955994,178.431854 298.955994,174.750320 
	C301.451385,176.610855 303.379852,177.405273 304.315948,178.844940 
	C315.128448,195.474167 326.192688,211.961594 336.339783,228.993256 
	C342.283051,238.968979 347.607788,249.525635 351.548340,260.422150 
	C355.460724,271.240601 357.559326,282.756256 359.923065,294.076843 
	C361.188477,300.137024 362.082733,306.457458 361.860077,312.613983 
	C360.893311,339.342865 352.675629,363.518585 335.957611,384.753082 
	C327.175812,395.907318 315.958405,403.992767 304.052979,411.022217 
	C300.430847,413.160919 294.437256,412.880310 290.010681,411.777405 
	C272.713623,407.467834 256.864410,400.159027 244.801849,386.362213 
	C237.108994,377.563324 231.884140,367.555969 229.963272,355.921021 
	C229.624542,353.869293 228.899475,351.881317 228.200134,349.433746 
z"/>
</svg>